HIERARCHY
ROOT Hips
{
	OFFSET -3.958830 18.904000 13.208200
	CHANNELS 6 Xposition Yposition Zposition Zrotation Yrotation Xrotation 
	JOINT LHipJoint
	{
		OFFSET 0.000000 0.000000 0.000000
		CHANNELS 3 Zrotation Yrotation Xrotation
		JOINT LeftUpLeg
		{
			OFFSET 1.800000 -1.400000 0.085000
			CHANNELS 3 Zrotation Yrotation Xrotation
			JOINT LeftLeg
			{
				OFFSET 2.215000 -6.000000 0.000000
				CHANNELS 3 Zrotation Yrotation Xrotation
				JOINT LeftFoot
				{
					OFFSET 2.500000 -6.900000 0.000000
					CHANNELS 3 Zrotation Yrotation Xrotation
					JOINT LeftToeBase
					{
						OFFSET 0.200000 -0.500000 1.950000
						CHANNELS 3 Zrotation Yrotation Xrotation
						End Site
						{
							OFFSET 0.000000 0.000000 0.000000
						}
					}
				}
			}
		}
	}
	JOINT RHipJoint
	{
		OFFSET 0.000000 0.000000 0.000000
		CHANNELS 3 Zrotation Yrotation Xrotation
		JOINT RightUpLeg
		{
			OFFSET -1.800000 -1.400000 0.085000
			CHANNELS 3 Zrotation Yrotation Xrotation
			JOINT RightLeg
			{
				OFFSET -2.215000 -6.000000 0.000000
				CHANNELS 3 Zrotation Yrotation Xrotation
				JOINT RightFoot
				{
					OFFSET -2.500000 -6.900000 0.000000
					CHANNELS 3 Zrotation Yrotation Xrotation
					JOINT RightToeBase
					{
						OFFSET -0.200000 -0.500000 1.950000
						CHANNELS 3 Zrotation Yrotation Xrotation
						End Site
						{
							OFFSET 0.000000 0.000000 0.000000
						}
					}
				}
			}
		}
	}
	JOINT LowerBack
	{
		OFFSET 0.000000 0.000000 0.000000
		CHANNELS 3 Zrotation Yrotation Xrotation
		JOINT Spine
		{
			OFFSET -0.087000 1.940000 -0.288900
			CHANNELS 3 Zrotation Yrotation Xrotation
			JOINT Spine1
			{
				OFFSET 0.000000 1.950000 0.060000
				CHANNELS 3 Zrotation Yrotation Xrotation
				JOINT Neck
				{
					OFFSET 0.000000 0.000000 0.000000
					CHANNELS 3 Zrotation Yrotation Xrotation
					JOINT Neck1
					{
						OFFSET 0.000000 1.600000 0.340000
						CHANNELS 3 Zrotation Yrotation Xrotation
						JOINT Head
						{
							OFFSET 0.000000 1.667000 -0.240000
							CHANNELS 3 Zrotation Yrotation Xrotation
							End Site
							{
								OFFSET 0.000000 0.000000 0.000000
							}
						}
					}
				}
				JOINT LeftShoulder
				{
					OFFSET 0.000000 0.000000 0.000000
					CHANNELS 3 Zrotation Yrotation Xrotation
					JOINT LeftArm
					{
						OFFSET 2.700000 1.550000 -0.730000
						CHANNELS 3 Zrotation Yrotation Xrotation
						JOINT LeftForeArm
						{
							OFFSET 5.450000 0.000000 0.000000
							CHANNELS 3 Zrotation Yrotation Xrotation
							JOINT LeftHand
							{
								OFFSET 3.450000 0.000000 0.000000
								CHANNELS 3 Zrotation Yrotation Xrotation
								JOINT LeftHandIndex1
								{
									OFFSET 0.750000 0.000000 0.000000
									CHANNELS 3 Zrotation Yrotation Xrotation
									End Site
									{
										OFFSET 0.000000 0.000000 0.000000
									}
								}
							}
						}
					}
				}
				JOINT RightShoulder
				{
					OFFSET 0.000000 0.000000 0.000000
					CHANNELS 3 Zrotation Yrotation Xrotation
					JOINT RightArm
					{
						OFFSET -2.700000 1.550000 -0.730000
						CHANNELS 3 Zrotation Yrotation Xrotation
						JOINT RightForeArm
						{
							OFFSET -5.450000 0.000000 0.000000
							CHANNELS 3 Zrotation Yrotation Xrotation
							JOINT RightHand
							{
								OFFSET -3.450000 0.000000 0.000000
								CHANNELS 3 Zrotation Yrotation Xrotation
								JOINT RightHandIndex1
								{
									OFFSET -0.750000 0.000000 0.000000
									CHANNELS 3 Zrotation Yrotation Xrotation
									End Site
									{
										OFFSET 0.000000 0.000000 0.000000
									}
								}
							}
						}
					}
				}
			}
		}
	}
}
MOTION
Frames: 9
Frame Time: 0.016667
1.195700 16.610050 -1.736380 34.299320 -69.119795 -28.744762 -15.535363 11.262992 6.118609 -6.419476 -5.729913 -68.256334 8.588501 4.827119 29.455033 -0.944776 5.035541 2.805569 0.607120 0.088120 0.559060 18.085532 -10.798786 2.198007 -4.832239 0.826304 -2.172952 2.994753 -5.609703 18.348377 -0.375922 -4.475001 3.232932 0.277040 0.288560 0.208910 -4.108117 0.552009 -8.295556 11.133342 11.918183 30.708355 -0.968620 14.907436 8.802446 0.187859 -3.274788 -5.862036 -6.563006 4.879653 37.088191 -11.381140 7.094050 -11.273090 -25.947418 0.183526 1.833375 -10.093375 17.788174 -1.398472 15.094528 -11.521452 -1.565913 -4.012295 2.766451 0.714540 0.319160 -0.144910 0.271910 22.730628 9.077940 2.491132 36.194059 13.504930 -10.045180 14.001571 82.963173 6.404296 1.380505 -1.846345 -0.452220 0.352270 -0.092910 -0.483330 
1.217190 16.486490 -1.656960 31.902233 -69.229087 -25.679553 -15.610938 11.508150 5.428776 -6.581680 -3.609713 -62.111110 6.838399 3.979526 15.298359 -1.242504 3.128129 3.567103 0.590220 0.042640 0.585130 17.928838 -10.958752 2.702831 -2.298321 -1.126426 0.690936 3.291624 -5.388355 10.879618 -0.427325 -4.362227 3.300978 0.279680 0.311030 0.187360 -4.766918 1.075263 -8.125964 13.797769 12.283601 26.489461 -0.275332 14.993721 10.111280 0.077653 -3.266940 -6.015014 -6.646108 5.157464 38.818604 -12.301890 7.654410 -11.272250 -24.015589 -0.237665 2.270631 -7.821750 17.018743 -0.627937 14.977701 -8.953607 -1.403354 -4.068699 2.636216 0.762160 0.332740 -0.155790 0.262950 21.184280 9.114032 2.158508 36.732793 15.958197 -9.325927 6.890680 75.858547 1.608671 1.329470 -1.683200 -0.517300 0.408480 -0.076150 -0.520420 
1.264510 16.350520 -1.603690 27.181591 -67.479910 -20.083064 -15.630104 11.207562 5.268198 -7.083552 -3.592707 -60.090386 2.927118 3.557453 5.685280 -1.277579 2.409755 3.866639 0.543690 -0.020980 0.521000 17.950346 -10.787428 3.111755 0.668169 -2.399107 2.747522 4.955047 -5.138421 3.512414 -0.509065 -4.439482 3.282772 0.216920 0.332030 0.211650 -5.250560 1.258997 -8.284780 16.562849 11.463766 24.377553 -0.626707 14.268900 9.252287 -0.260514 -4.487712 -6.957417 -8.973696 6.335745 38.856195 -11.542360 8.168410 -9.402010 -22.124775 -1.137610 2.918708 -5.547319 17.255124 -0.108031 15.081491 -8.096891 -1.257983 -4.064485 2.694451 0.744290 0.335530 -0.176590 0.262040 20.323718 10.532934 2.952887 36.959010 16.415627 -9.190551 1.180292 70.742156 -1.659378 1.337006 -1.612218 -0.489480 0.356950 -0.046620 -0.497450 
1.322930 16.215700 -1.558050 23.256900 -65.576370 -15.778246 -15.562710 10.922897 5.245103 -7.145439 -3.605873 -58.791046 -0.979628 3.287801 0.320359 -1.263421 2.340278 3.942447 0.476730 -0.107450 0.464460 18.037063 -10.781255 3.350760 3.404581 -3.243037 3.871507 4.590716 -4.848789 0.119414 -0.543983 -4.497841 3.277280 0.166910 0.380500 0.183740 -5.729165 1.590248 -8.386031 19.708429 10.073293 23.138379 -2.039619 13.279271 7.393084 -0.611054 -5.751730 -7.605754 -11.108497 7.742359 39.356859 -10.518690 8.768450 -6.917260 -20.260859 -1.402904 3.293428 -3.928595 18.275529 0.036523 16.918432 -9.964284 -1.331590 -4.059577 2.717698 0.737480 0.341190 -0.217590 0.264770 19.403242 11.502172 3.255781 37.061088 18.819241 -7.276053 -1.566505 61.752292 -2.010106 1.392419 -1.522048 -0.521210 0.366690 -0.021340 -0.484930 
1.388900 16.088180 -1.513620 21.387519 -64.935444 -14.165759 -15.515538 10.793957 5.171849 -7.117950 -3.368858 -57.776387 -3.281745 3.303473 0.452308 -1.276420 2.377596 3.907190 0.527740 -0.061890 0.541910 18.069776 -10.896662 3.515081 4.310437 -3.452417 4.767588 4.809529 -4.796118 -1.274382 -0.614574 -4.581065 3.219986 0.190780 0.310430 0.187880 -6.141255 2.087196 -8.345712 21.999806 9.260017 22.684270 -3.375421 12.803223 6.211542 -0.724591 -6.096319 -7.118460 -11.019562 8.491660 39.469392 -11.752210 9.998020 -8.829940 -19.204424 -0.620994 2.985099 -2.589092 19.032782 -0.038828 22.092702 -13.386139 -1.823510 -4.073405 2.789948 0.763490 0.307460 -0.181340 0.241980 18.475863 11.045306 2.380505 38.025751 23.622921 -3.538173 -3.369738 49.504064 -1.691738 1.480955 -1.432951 -0.506220 0.340960 -0.047460 -0.519400 
1.416470 15.961270 -1.449910 17.808848 -64.161888 -10.954062 -15.406811 10.766456 5.043835 -7.502866 -3.381370 -56.518792 -4.550586 3.666063 4.453072 -1.278843 2.465482 3.874767 0.503650 -0.078840 0.519550 18.151865 -11.047016 3.686585 5.643124 -3.782829 5.671050 4.941643 -4.822465 -1.922033 -0.639204 -4.670059 3.198178 0.186020 0.317290 0.162830 -6.405596 2.350251 -8.267776 25.050982 8.826949 21.994398 -3.897929 13.027597 4.408075 -1.241177 -6.735691 -6.891377 -12.091190 8.412114 39.815333 -12.143420 9.723790 -8.550770 -18.879675 -0.305350 2.378695 -0.792807 18.004146 0.081044 25.444920 -16.699967 -2.404972 -4.106505 2.807743 0.759620 0.308020 -0.197840 0.233580 18.997470 11.261442 2.658145 37.515305 24.726955 -1.857967 -7.368846 38.573125 -2.659534 1.573550 -1.364293 -0.522510 0.358040 -0.031610 -0.520160 
1.439780 15.859450 -1.380860 14.452794 -64.047643 -7.964587 -15.338906 10.644103 5.121787 -5.526285 -2.982184 -58.129230 -6.530284 5.269404 13.016451 -1.150398 3.376401 3.506131 0.488020 -0.091400 0.495030 18.229070 -11.096944 3.715165 6.462992 -3.880105 5.961457 5.402050 -4.942936 -1.153289 -0.644928 -4.697012 3.192496 0.171770 0.325610 0.149410 -6.504788 2.507682 -8.259447 27.552712 8.688566 21.324369 -3.961960 13.633925 3.130184 -1.594167 -7.280577 -7.134691 -12.972141 8.882129 40.056573 -11.556630 9.911920 -7.884520 -17.514725 0.207920 2.237606 -2.895776 17.882001 -0.773542 32.260046 -23.419914 -4.367158 -4.121097 2.844921 0.759140 0.299900 -0.203830 0.240930 18.340846 11.430587 3.095896 38.110773 25.315560 -0.316456 -9.728700 29.298006 -2.980863 1.693806 -1.346487 -0.525830 0.358650 -0.029740 -0.510750 
1.461490 15.794090 -1.327880 15.740547 -64.037703 -8.619773 -15.289940 10.711644 5.286888 -6.300012 -3.658372 -58.011483 -6.778548 5.582121 15.580379 -0.980409 3.493478 3.458186 0.449690 -0.110760 0.480530 18.206566 -11.359759 3.624005 6.175557 -3.582489 4.135078 3.794563 -5.137277 2.782414 -0.555850 -4.523760 3.277564 0.099380 0.304750 0.184070 -6.420477 2.860200 -8.288492 26.994478 9.924834 21.369367 -5.302053 15.174874 1.305693 -1.076164 -5.197944 -7.820827 -8.426738 7.684406 40.246341 -13.273780 11.932840 -5.468500 -16.438288 -0.363892 2.139893 -3.349041 17.860199 -1.519400 39.117909 -30.511137 -7.139351 -4.166850 2.940407 0.682160 0.327980 -0.185690 0.251470 16.424880 11.281628 4.038993 42.694187 23.804385 0.195062 -12.818656 22.182686 -3.603680 1.838686 -1.432874 -0.450450 0.263750 -0.069500 -0.479140 
1.460460 15.790680 -1.244680 13.340756 -64.003993 -6.997966 -15.170982 11.001368 5.208562 -7.933564 -4.411464 -55.784501 -1.151638 5.005204 22.552780 -0.901162 3.672998 3.359176 0.407800 -0.164510 0.407790 18.249674 -11.555351 3.642612 6.945304 -3.440298 3.175796 2.258125 -5.209050 6.399045 -0.512670 -4.421894 3.303060 0.033190 0.290210 0.195290 -6.349229 2.797127 -8.201156 29.312852 9.246759 21.870050 -7.186855 15.503953 -1.252114 -1.042470 -5.111302 -8.457330 -7.959851 8.299020 42.555238 -11.066290 12.188500 -3.235260 -16.150388 0.226241 2.264014 -7.138210 19.958232 -2.947344 51.971560 -38.708176 -13.562365 -4.161954 2.931904 0.700950 0.295770 -0.183430 0.245350 16.037878 11.148798 4.603761 45.667784 21.904628 0.646010 -12.370097 16.562175 -2.936973 1.943741 -1.439275 -0.420980 0.199590 -0.039190 -0.464480 
